<?xml version="1.0" encoding="utf-8"?>
<!-- Generator: Adobe Illustrator 28.0.0, SVG Export Plug-In . SVG Version: 6.00 Build 0)  -->
<svg width="40px" height="40px" version="1.1" id="instagram" xmlns="http://www.w3.org/2000/svg" xmlns:xlink="http://www.w3.org/1999/xlink" x="0px" y="0px"
	 viewBox="0 0 50 50" style="enable-background:new 0 0 50 50;" xml:space="preserve">
<style type="text/css">
	.st0{fill:#FFFFFF;}
</style>
<path class="st0" d="M49.8,14.7c0-2.1-0.4-4.1-1.2-6.1c-0.6-1.7-1.6-3.2-2.9-4.4c-1.2-1.3-2.8-2.3-4.4-2.9c-1.9-0.7-4-1.1-6.1-1.2
	C32.6,0,31.8,0,25,0s-7.6,0-10.3,0.2c-2.1,0-4.1,0.4-6.1,1.2C7,1.9,5.4,2.9,4.2,4.2C2.9,5.4,1.9,7,1.3,8.6c-0.7,1.9-1.1,4-1.2,6.1
	C0,17.4,0,18.2,0,25s0,7.6,0.2,10.3c0,2.1,0.4,4.1,1.2,6.1c0.6,1.7,1.6,3.2,2.9,4.4c1.2,1.3,2.8,2.3,4.4,2.9c1.9,0.7,4,1.1,6.1,1.2
	C17.4,50,18.2,50,25,50s7.6,0,10.3-0.2c2.1,0,4.1-0.4,6.1-1.2c3.4-1.3,6-4,7.3-7.3c0.7-1.9,1.1-4,1.2-6.1C50,32.6,50,31.8,50,25
	S50,17.4,49.8,14.7z M45.3,35.1c0,1.6-0.3,3.2-0.9,4.6c-0.8,2.2-2.6,3.9-4.7,4.7c-1.5,0.6-3.1,0.8-4.6,0.9
	c-2.6,0.1-3.4,0.1-10.1,0.1s-7.5,0-10.1-0.1c-1.6,0-3.2-0.3-4.6-0.9c-1.1-0.4-2.1-1-2.9-1.9c-0.8-0.8-1.5-1.8-1.9-2.9
	c-0.6-1.5-0.8-3.1-0.9-4.6C4.5,32.5,4.5,31.7,4.5,25s0-7.5,0.1-10.1c0-1.6,0.3-3.2,0.9-4.6c0.4-1.1,1-2.1,1.9-2.9
	c0.8-0.8,1.8-1.5,2.9-1.9c1.5-0.6,3.1-0.8,4.6-0.9c2.6-0.1,3.4-0.1,10.1-0.1s7.5,0,10.1,0.1c1.6,0,3.2,0.3,4.6,0.9
	c1.1,0.4,2.1,1,2.9,1.9c0.8,0.8,1.5,1.8,1.9,2.9c0.6,1.5,0.8,3.1,0.9,4.6c0.1,2.6,0.1,3.4,0.1,10.1S45.5,32.5,45.3,35.1z M25,12.2
	c-7.1,0-12.8,5.7-12.8,12.8S17.9,37.8,25,37.8S37.8,32.1,37.8,25l0,0C37.8,17.9,32.1,12.2,25,12.2z M25,33.3c-4.6,0-8.3-3.7-8.3-8.3
	s3.7-8.3,8.3-8.3s8.3,3.7,8.3,8.3S29.6,33.3,25,33.3z M41.3,11.7c0,1.7-1.3,3-3,3c-1.7,0-3-1.3-3-3s1.3-3,3-3l0,0
	C40,8.7,41.3,10,41.3,11.7z"/>
</svg>
