<?xml version="1.0" encoding="UTF-8"?>
<svg width="50px" height="60px" id="Layer_1" data-name="Layer 1" xmlns="http://www.w3.org/2000/svg" viewBox="0 0 416.67 500">
  <defs>
    <style>
      .cls-1 {
        fill: #fff;
        stroke-width: 0px;
      }
    </style>
  </defs>
  <path class="cls-1" d="m311,166.67h91.42c-5.13-14.54-11.58-28.5-19.21-41.67-8.62-14.92-18.75-28.87-30.17-41.67-6.21-6.92-12.79-13.5-19.71-19.71-24.04-21.5-52.29-38.42-83.33-49.38C223.92,5,195.88,0,166.67,0v83.33c30.33,0,58.79,8.13,83.33,22.29,25.29,14.63,46.42,35.75,61,61.04Z"/>
  <path class="cls-1" d="m94.54,291.67c-7.13-12.25-11.21-26.5-11.21-41.67s4.08-29.42,11.21-41.67c14.38-24.92,41.29-41.67,72.12-41.67v-83.33c-30.33,0-58.79,8.13-83.33,22.29-25.29,14.63-46.42,35.75-61,61.04h-.04C8.13,191.21,0,219.67,0,250s8.13,58.79,22.29,83.33h.04c14.58,25.29,35.71,46.42,61,61.04,24.54,14.17,53,22.29,83.33,22.29v-83.33c-30.83,0-57.75-16.75-72.12-41.67Z"/>
  <path class="cls-1" d="m166.67,250l72.12,41.67,11.21,6.46,61,35.21c-14.58,25.29-35.71,46.42-61,61.04-24.54,14.17-53,22.29-83.33,22.29v83.33c29.21,0,57.25-5,83.33-14.25,31.04-10.96,59.29-27.92,83.33-49.42,6.92-6.17,13.46-12.75,19.67-19.67,11.42-12.79,21.54-26.75,30.21-41.67,7.63-13.17,14.08-27.13,19.21-41.67,9.21-26.04,14.25-54.12,14.25-83.33h-250Z"/>
</svg>