<?xml version="1.0" encoding="utf-8"?>
<!-- Generator: Adobe Illustrator 28.0.0, SVG Export Plug-In . SVG Version: 6.00 Build 0)  -->
<svg width="52" height="60" version="1.1" id="Layer_1" xmlns="http://www.w3.org/2000/svg" xmlns:xlink="http://www.w3.org/1999/xlink" x="0px" y="0px"
	 viewBox="0 0 52 60" style="enable-background:new 0 0 52 60;" xml:space="preserve">
<style type="text/css">
	.st0{fill:#868686;}
	.st1{fill:#FFFFFF;stroke:#FFFFFF;stroke-width:3.000000e-02;stroke-miterlimit:1.2;}
</style>
<polygon class="st0" points="52,45 26,60 0,45 0,15 26,0 52,15 "/>
<g>
	<path class="st1" d="M44.6,17.1L44.4,17L42.7,16L40.9,15L39,16L37.4,17l-0.2,0.1l-1.9,1.1v23.6l1.9,1.1l0.2,0.1L39,44l1.9,1.1
		l1.9-1.1l1.6-0.9l0.2-0.1l1.9-1.1V18.2L44.6,17.1L44.6,17.1z M42.7,39.7l-1.9,1.1L39,39.7V20.3l1.9-1.1l1.9,1.1V39.7z"/>
	<polygon class="st1" points="24.1,28.1 27.9,28.1 27.9,31.9 24.1,31.9 24.1,48.2 26,49.3 29.7,47.2 31.6,48.2 31.6,50.4 31.5,50.4 
		29.7,51.5 27.9,52.5 26,53.6 24.1,52.5 22.3,51.5 20.5,50.4 20.4,50.4 20.4,9.6 20.5,9.6 22.3,8.5 24.1,7.5 26,6.4 27.9,7.5 
		29.7,8.5 31.5,9.6 31.6,9.6 31.6,11.8 29.7,12.8 26,10.7 24.1,11.8 	"/>
	<polygon class="st1" points="9.3,39.7 11.1,40.7 13,41.8 13,31.1 14.8,30 16.7,31.1 16.7,46.1 15.6,46.7 14.8,47.2 14.1,46.7 
		13,46.1 11.1,45 9.3,44 7.6,43 7.4,42.9 5.6,41.8 5.6,18.2 7.4,17.1 7.6,17 9.3,16 11.1,15 13,13.9 14.1,13.3 14.8,12.8 15.6,13.3 
		16.7,13.9 16.7,16 15.1,17 14.8,17.1 13,18.2 11.1,19.3 9.3,20.3 	"/>
</g>
</svg>
